# xmcd CD database file
# Copyright (C) 1993-1998 Ti Kan
# 
# Track frame offsets:
#     150
#     19617
#     40515
#     63960
#     87742
#     105907
#     125252
#     141430
#     164115
#     183435
#     204697
#     221255
#     240862
# 
# Disc length: 3615 seconds
# 
# Revision: 1
# Processed by: cddbd v1.4b41PL1 Copyright (c) Steve Scherf et al.
# Submitted via: DiscPlay 4.0.4
# 
DISCID=ad0e1d0d
DTITLE=Orleans - Ride
DYEAR=1900
DGENRE=
TTITLE0=If We Never Meet Again
TTITLE1=I'm On Your Side
TTITLE2=Heaven
TTITLE3=One Tribe
TTITLE4=The Great Divide
TTITLE5=Ride
TTITLE6=In My Dream
TTITLE7=Yestertime
TTITLE8=Earth Out Tonight
TTITLE9=Plastic Money
TTITLE10=Looking For The Light
TTITLE11=Love's Not Just For Other People
TTITLE12=Analog Man
EXTD=
EXTT0=
EXTT1=
EXTT2=
EXTT3=
EXTT4=
EXTT5=
EXTT6=
EXTT7=
EXTT8=
EXTT9=
EXTT10=
EXTT11=
EXTT12=
PLAYORDER=
